<svg width="100" height="100" viewBox="0 0 100 100" fill="none" xmlns="http://www.w3.org/2000/svg">
<circle cx="50" cy="50" r="50" fill="white" fill-opacity="0.05"/>
<circle cx="49.8835" cy="37.3215" r="8.37567" fill="white"/>
<path opacity="0.4" d="M66.6355 61.4011C66.6355 66.6051 66.6355 70.8238 49.8842 70.8238C33.1328 70.8238 33.1328 66.6051 33.1328 61.4011C33.1328 56.1972 40.6326 51.9785 49.8842 51.9785C59.1357 51.9785 66.6355 56.1972 66.6355 61.4011Z" fill="white"/>
<rect x="71.875" y="1.875" width="26" height="26" rx="13" fill="url(#paint0_linear_120_11618)"/>
<path d="M84.5288 18.4347L84.5288 18.4347L88.802 14.1616C88.2204 13.9195 87.5316 13.5219 86.8801 12.8705C86.2286 12.2189 85.8309 11.5299 85.5889 10.9483L81.3156 15.2216L81.3156 15.2216C80.9822 15.555 80.8154 15.7218 80.672 15.9056C80.5029 16.1225 80.3579 16.3571 80.2395 16.6054C80.1392 16.8159 80.0647 17.0396 79.9155 17.487L79.1291 19.8462C79.0557 20.0664 79.113 20.3091 79.2771 20.4732C79.4412 20.6374 79.684 20.6947 79.9041 20.6213L82.2634 19.8348C82.7108 19.6857 82.9345 19.6111 83.145 19.5108C83.3933 19.3925 83.6279 19.2475 83.8448 19.0783C84.0286 18.9349 84.1954 18.7682 84.5288 18.4347Z" fill="white"/>
<path d="M89.9877 12.9758C90.875 12.0885 90.875 10.6499 89.9877 9.76264C89.1004 8.87534 87.6619 8.87534 86.7746 9.76264L86.262 10.2752C86.2691 10.2963 86.2763 10.3178 86.2839 10.3396C86.4717 10.8811 86.8262 11.5909 87.4929 12.2576C88.1597 12.9244 88.8695 13.2788 89.411 13.4667C89.4326 13.4742 89.454 13.4814 89.4751 13.4884L89.9877 12.9758Z" fill="white"/>
<defs>
<linearGradient id="paint0_linear_120_11618" x1="71.875" y1="14.875" x2="97.875" y2="14.875" gradientUnits="userSpaceOnUse">
<stop stop-color="#00C6FF"/>
<stop offset="1" stop-color="#0072FF"/>
</linearGradient>
</defs>
</svg>
