<svg width="24" height="24" viewBox="0 0 24 24" fill="none" xmlns="http://www.w3.org/2000/svg">
<path d="M9.59844 15.2C9.59844 15.6419 9.24027 16 8.79844 16C8.35661 16 7.99844 15.6419 7.99844 15.2C7.99844 14.7582 8.35661 14.4 8.79844 14.4C9.24027 14.4 9.59844 14.7582 9.59844 15.2Z" fill="white" fill-opacity="0.5"/>
<path d="M12.7984 15.2C12.7984 15.6419 12.4403 16 11.9984 16C11.5566 16 11.1984 15.6419 11.1984 15.2C11.1984 14.7582 11.5566 14.4 11.9984 14.4C12.4403 14.4 12.7984 14.7582 12.7984 15.2Z" fill="white" fill-opacity="0.5"/>
<path d="M15.1984 16C15.6403 16 15.9984 15.6419 15.9984 15.2C15.9984 14.7582 15.6403 14.4 15.1984 14.4C14.7566 14.4 14.3984 14.7582 14.3984 15.2C14.3984 15.6419 14.7566 16 15.1984 16Z" fill="white" fill-opacity="0.5"/>
<path fill-rule="evenodd" clip-rule="evenodd" d="M6.59844 8.80002V9.84224C6.41697 9.855 6.24594 9.87161 6.08504 9.89324C5.36495 9.99006 4.75865 10.1972 4.27712 10.6787C3.79559 11.1602 3.58847 11.7665 3.49166 12.4866C3.39841 13.1802 3.39842 14.062 3.39844 15.1561V15.2439C3.39842 16.338 3.39841 17.2199 3.49166 17.9134C3.58847 18.6335 3.79559 19.2398 4.27712 19.7213C4.75865 20.2029 5.36495 20.41 6.08504 20.5068C6.77861 20.6001 7.66047 20.6 8.75454 20.6H15.2423C16.3364 20.6 17.2183 20.6001 17.9118 20.5068C18.6319 20.41 19.2382 20.2029 19.7198 19.7213C20.2013 19.2398 20.4084 18.6335 20.5052 17.9134C20.5985 17.2199 20.5985 16.338 20.5984 15.2439V15.1561C20.5985 14.0621 20.5985 13.1802 20.5052 12.4866C20.4084 11.7665 20.2013 11.1602 19.7198 10.6787C19.2382 10.1972 18.6319 9.99006 17.9118 9.89324C17.7509 9.87161 17.5799 9.855 17.3984 9.84224V8.80002C17.3984 5.81769 14.9808 3.40002 11.9984 3.40002C9.0161 3.40002 6.59844 5.81769 6.59844 8.80002ZM11.9984 4.60002C9.67884 4.60002 7.79844 6.48043 7.79844 8.80002V9.80278C8.09723 9.80001 8.41565 9.80002 8.75443 9.80002H15.2423C15.5811 9.80002 15.8996 9.80001 16.1984 9.80278V8.80002C16.1984 6.48043 14.318 4.60002 11.9984 4.60002ZM6.24493 11.0825C5.65791 11.1615 5.34706 11.3058 5.12565 11.5272C4.90424 11.7486 4.75988 12.0595 4.68096 12.6465C4.59971 13.2508 4.59844 14.0517 4.59844 15.2C4.59844 16.3484 4.59971 17.1492 4.68096 17.7535C4.75988 18.3405 4.90424 18.6514 5.12565 18.8728C5.34706 19.0942 5.65791 19.2386 6.24493 19.3175C6.84922 19.3988 7.65011 19.4 8.79844 19.4H15.1984C16.3468 19.4 17.1477 19.3988 17.7519 19.3175C18.339 19.2386 18.6498 19.0942 18.8712 18.8728C19.0926 18.6514 19.237 18.3405 19.3159 17.7535C19.3972 17.1492 19.3984 16.3484 19.3984 15.2C19.3984 14.0517 19.3972 13.2508 19.3159 12.6465C19.237 12.0595 19.0926 11.7486 18.8712 11.5272C18.6498 11.3058 18.339 11.1615 17.7519 11.0825C17.1477 11.0013 16.3468 11 15.1984 11H8.79844C7.65011 11 6.84922 11.0013 6.24493 11.0825Z" fill="white" fill-opacity="0.5"/>
</svg>
