<svg width="24" height="24" viewBox="0 0 24 24" fill="none" xmlns="http://www.w3.org/2000/svg">
<path fill-rule="evenodd" clip-rule="evenodd" d="M12.0001 3.3999C9.90143 3.3999 8.20011 5.10122 8.20011 7.1999C8.20011 9.29858 9.90143 10.9999 12.0001 10.9999C14.0988 10.9999 15.8001 9.29858 15.8001 7.1999C15.8001 5.10122 14.0988 3.3999 12.0001 3.3999ZM9.40011 7.1999C9.40011 5.76396 10.5642 4.5999 12.0001 4.5999C13.436 4.5999 14.6001 5.76396 14.6001 7.1999C14.6001 8.63584 13.436 9.7999 12.0001 9.7999C10.5642 9.7999 9.40011 8.63584 9.40011 7.1999Z" fill="white" fill-opacity="0.5"/>
<path fill-rule="evenodd" clip-rule="evenodd" d="M12.0001 12.1999C10.1493 12.1999 8.44405 12.6206 7.18047 13.3314C5.93569 14.0316 5.00011 15.0928 5.00011 16.3999L5.00005 16.4815C4.99915 17.4109 4.99802 18.5775 6.02124 19.4107C6.52481 19.8208 7.22929 20.1124 8.18107 20.3051C9.13552 20.4983 10.3795 20.5999 12.0001 20.5999C13.6207 20.5999 14.8647 20.4983 15.8191 20.3051C16.7709 20.1124 17.4754 19.8208 17.979 19.4107C19.0022 18.5775 19.0011 17.4109 19.0002 16.4815L19.0001 16.3999C19.0001 15.0928 18.0645 14.0316 16.8197 13.3314C15.5562 12.6206 13.8509 12.1999 12.0001 12.1999ZM6.20011 16.3999C6.20011 15.7188 6.69721 14.98 7.76878 14.3773C8.82155 13.7851 10.3163 13.3999 12.0001 13.3999C13.6839 13.3999 15.1787 13.7851 16.2314 14.3773C17.303 14.98 17.8001 15.7188 17.8001 16.3999C17.8001 17.4461 17.7679 18.0351 17.2212 18.4802C16.9248 18.7216 16.4293 18.9572 15.5811 19.1289C14.7355 19.3001 13.5795 19.3999 12.0001 19.3999C10.4207 19.3999 9.2647 19.3001 8.41914 19.1289C7.57093 18.9572 7.0754 18.7216 6.77898 18.4802C6.23236 18.0351 6.20011 17.4461 6.20011 16.3999Z" fill="white" fill-opacity="0.5"/>
</svg>
